REM DIRINDEX 1\3,1\2\4,1\2\5,1\2\6
REM DIRNAME cjc137,folder01,folder02,folder03,folder04,folder05
TITLE ""
FILE "154.mp3" MP3
  TRACK 01 AUDIO
    TITLE "4:cjc137_6860"
    INDEX 01 00:00:00
  TRACK 02 AUDIO
    TITLE "0:"
    INDEX 01 00:01:28
  TRACK 03 AUDIO
    TITLE "6:cjc137_6861"
    INDEX 01 00:01:34
  TRACK 04 AUDIO
    TITLE "0:"
    INDEX 01 00:02:49
  TRACK 05 AUDIO
    TITLE "5:cjc137_6862"
    INDEX 01 00:02:55
  TRACK 06 AUDIO
    TITLE "0:"
    INDEX 01 00:04:09
  TRACK 07 AUDIO
    TITLE "4:cjc137_6863"
    INDEX 01 00:05:16
  TRACK 08 AUDIO
    TITLE "0:"
    INDEX 01 00:06:53
  TRACK 09 AUDIO
    TITLE "6:cjc137_6864"
    INDEX 01 00:06:59
  TRACK 10 AUDIO
    TITLE "0:"
    INDEX 01 00:08:05
  TRACK 11 AUDIO
    TITLE "5:cjc137_6865"
    INDEX 01 00:08:11
  TRACK 12 AUDIO
    TITLE "0:"
    INDEX 01 00:09:49
  TRACK 13 AUDIO
    TITLE "4:cjc137_6866"
    INDEX 01 00:10:55
  TRACK 14 AUDIO
    TITLE "0:"
    INDEX 01 00:12:22
  TRACK 15 AUDIO
    TITLE "6:cjc137_6867"
    INDEX 01 00:12:26
  TRACK 16 AUDIO
    TITLE "0:"
    INDEX 01 00:14:09
  TRACK 17 AUDIO
    TITLE "5:cjc137_6868"
    INDEX 01 00:14:13
  TRACK 18 AUDIO
    TITLE "0:"
    INDEX 01 00:15:54
  TRACK 19 AUDIO
    TITLE "4:cjc137_6869"
    INDEX 01 00:16:65
  TRACK 20 AUDIO
    TITLE "0:"
    INDEX 01 00:18:17
  TRACK 21 AUDIO
    TITLE "6:cjc137_6870"
    INDEX 01 00:18:23
  TRACK 22 AUDIO
    TITLE "0:"
    INDEX 01 00:19:63
  TRACK 23 AUDIO
    TITLE "5:cjc137_6871"
    INDEX 01 00:19:71
  TRACK 24 AUDIO
    TITLE "0:"
    INDEX 01 00:21:25
  TRACK 25 AUDIO
    TITLE "4:cjc137_6872"
    INDEX 01 00:22:30
  TRACK 26 AUDIO
    TITLE "0:"
    INDEX 01 00:24:12
  TRACK 27 AUDIO
    TITLE "6:cjc137_6873"
    INDEX 01 00:24:25
  TRACK 28 AUDIO
    TITLE "0:"
    INDEX 01 00:25:60
  TRACK 29 AUDIO
    TITLE "5:cjc137_6874"
    INDEX 01 00:25:64
  TRACK 30 AUDIO
    TITLE "0:"
    INDEX 01 00:27:47
  TRACK 31 AUDIO
    TITLE "4:cjc137_6875"
    INDEX 01 00:28:59
  TRACK 32 AUDIO
    TITLE "0:"
    INDEX 01 00:30:16
  TRACK 33 AUDIO
    TITLE "6:cjc137_6876"
    INDEX 01 00:30:20
  TRACK 34 AUDIO
    TITLE "0:"
    INDEX 01 00:32:21
  TRACK 35 AUDIO
    TITLE "5:cjc137_6877"
    INDEX 01 00:32:25
  TRACK 36 AUDIO
    TITLE "0:"
    INDEX 01 00:33:56
  TRACK 37 AUDIO
    TITLE "4:cjc137_6878"
    INDEX 01 00:34:65
  TRACK 38 AUDIO
    TITLE "0:"
    INDEX 01 00:36:38
  TRACK 39 AUDIO
    TITLE "6:cjc137_6879"
    INDEX 01 00:36:42
  TRACK 40 AUDIO
    TITLE "0:"
    INDEX 01 00:38:49
  TRACK 41 AUDIO
    TITLE "5:cjc137_6880"
    INDEX 01 00:38:55
  TRACK 42 AUDIO
    TITLE "0:"
    INDEX 01 00:40:26
  TRACK 43 AUDIO
    TITLE "4:cjc137_6881"
    INDEX 01 00:41:34
  TRACK 44 AUDIO
    TITLE "0:"
    INDEX 01 00:43:15
  TRACK 45 AUDIO
    TITLE "6:cjc137_6882"
    INDEX 01 00:43:23
  TRACK 46 AUDIO
    TITLE "0:"
    INDEX 01 00:45:26
  TRACK 47 AUDIO
    TITLE "5:cjc137_6883"
    INDEX 01 00:45:33
  TRACK 48 AUDIO
    TITLE "0:"
    INDEX 01 00:47:15
  TRACK 49 AUDIO
    TITLE "4:cjc137_6884"
    INDEX 01 00:48:26
  TRACK 50 AUDIO
    TITLE "0:"
    INDEX 01 00:49:72
  TRACK 51 AUDIO
    TITLE "6:cjc137_6885"
    INDEX 01 00:50:05
  TRACK 52 AUDIO
    TITLE "0:"
    INDEX 01 00:52:06
  TRACK 53 AUDIO
    TITLE "5:cjc137_6886"
    INDEX 01 00:52:10
  TRACK 54 AUDIO
    TITLE "0:"
    INDEX 01 00:53:57
  TRACK 55 AUDIO
    TITLE "4:cjc137_6887"
    INDEX 01 00:54:66
  TRACK 56 AUDIO
    TITLE "0:"
    INDEX 01 00:57:07
  TRACK 57 AUDIO
    TITLE "6:cjc137_6888"
    INDEX 01 00:57:13
  TRACK 58 AUDIO
    TITLE "0:"
    INDEX 01 01:00:00
  TRACK 59 AUDIO
    TITLE "5:cjc137_6889"
    INDEX 01 01:00:08
  TRACK 60 AUDIO
    TITLE "0:"
    INDEX 01 01:02:24
  TRACK 61 AUDIO
    TITLE "4:cjc137_6890"
    INDEX 01 01:03:29
  TRACK 62 AUDIO
    TITLE "0:"
    INDEX 01 01:04:50
  TRACK 63 AUDIO
    TITLE "6:cjc137_6891"
    INDEX 01 01:04:60
  TRACK 64 AUDIO
    TITLE "0:"
    INDEX 01 01:06:12
  TRACK 65 AUDIO
    TITLE "5:cjc137_6892"
    INDEX 01 01:06:20
  TRACK 66 AUDIO
    TITLE "0:"
    INDEX 01 01:07:39
  TRACK 67 AUDIO
    TITLE "4:cjc137_6893"
    INDEX 01 01:08:52
  TRACK 68 AUDIO
    TITLE "0:"
    INDEX 01 01:10:37
  TRACK 69 AUDIO
    TITLE "6:cjc137_6894"
    INDEX 01 01:10:49
  TRACK 70 AUDIO
    TITLE "0:"
    INDEX 01 01:12:50
  TRACK 71 AUDIO
    TITLE "5:cjc137_6895"
    INDEX 01 01:12:62
  TRACK 72 AUDIO
    TITLE "0:"
    INDEX 01 01:14:45
  TRACK 73 AUDIO
    TITLE "4:cjc137_6896"
    INDEX 01 01:15:60
  TRACK 74 AUDIO
    TITLE "0:"
    INDEX 01 01:17:24
  TRACK 75 AUDIO
    TITLE "6:cjc137_6897"
    INDEX 01 01:17:33
  TRACK 76 AUDIO
    TITLE "0:"
    INDEX 01 01:18:70
  TRACK 77 AUDIO
    TITLE "5:cjc137_6898"
    INDEX 01 01:19:03
  TRACK 78 AUDIO
    TITLE "0:"
    INDEX 01 01:20:42
  TRACK 79 AUDIO
    TITLE "4:cjc137_6899"
    INDEX 01 01:21:55
  TRACK 80 AUDIO
    TITLE "0:"
    INDEX 01 01:23:11
  TRACK 81 AUDIO
    TITLE "6:cjc137_6900"
    INDEX 01 01:23:16
  TRACK 82 AUDIO
    TITLE "0:"
    INDEX 01 01:24:55
  TRACK 83 AUDIO
    TITLE "5:cjc137_6901"
    INDEX 01 01:24:59
  TRACK 84 AUDIO
    TITLE "0:"
    INDEX 01 01:26:15
  TRACK 85 AUDIO
    TITLE "4:cjc137_6902"
    INDEX 01 01:27:22
  TRACK 86 AUDIO
    TITLE "0:"
    INDEX 01 01:28:51
  TRACK 87 AUDIO
    TITLE "6:cjc137_6903"
    INDEX 01 01:28:59
  TRACK 88 AUDIO
    TITLE "0:"
    INDEX 01 01:30:62
  TRACK 89 AUDIO
    TITLE "5:cjc137_6904"
    INDEX 01 01:30:67
  TRACK 90 AUDIO
    TITLE "0:"
    INDEX 01 01:32:21
  TRACK 91 AUDIO
    TITLE "4:cjc137_6905"
    INDEX 01 01:33:31
  TRACK 92 AUDIO
    TITLE "0:"
    INDEX 01 01:34:42
  TRACK 93 AUDIO
    TITLE "6:cjc137_6906"
    INDEX 01 01:34:55
  TRACK 94 AUDIO
    TITLE "0:"
    INDEX 01 01:36:09
  TRACK 95 AUDIO
    TITLE "5:cjc137_6907"
    INDEX 01 01:36:17
  TRACK 96 AUDIO
    TITLE "0:"
    INDEX 01 01:37:30
  TRACK 97 AUDIO
    TITLE "4:cjc137_6908"
    INDEX 01 01:38:42
  TRACK 98 AUDIO
    TITLE "0:"
    INDEX 01 01:39:72
  TRACK 99 AUDIO
    TITLE "6:cjc137_6909"
    INDEX 01 01:40:01
  TRACK 100 AUDIO
    TITLE "0:"
    INDEX 01 01:41:12
  TRACK 101 AUDIO
    TITLE "5:cjc137_6910"
    INDEX 01 01:41:16
  TRACK 102 AUDIO
    TITLE "0:"
    INDEX 01 01:42:47
  TRACK 103 AUDIO
    TITLE "4:cjc137_6911"
    INDEX 01 01:43:52
  TRACK 104 AUDIO
    TITLE "0:"
    INDEX 01 01:45:18
  TRACK 105 AUDIO
    TITLE "6:cjc137_6912"
    INDEX 01 01:45:24
  TRACK 106 AUDIO
    TITLE "0:"
    INDEX 01 01:46:51
  TRACK 107 AUDIO
    TITLE "5:cjc137_6913"
    INDEX 01 01:46:57
  TRACK 108 AUDIO
    TITLE "0:"
    INDEX 01 01:48:22
  TRACK 109 AUDIO
    TITLE "4:cjc137_6914"
    INDEX 01 01:49:32
  TRACK 110 AUDIO
    TITLE "0:"
    INDEX 01 01:50:41
  TRACK 111 AUDIO
    TITLE "6:cjc137_6915"
    INDEX 01 01:50:49
  TRACK 112 AUDIO
    TITLE "0:"
    INDEX 01 01:52:42
  TRACK 113 AUDIO
    TITLE "5:cjc137_6916"
    INDEX 01 01:52:49
  TRACK 114 AUDIO
    TITLE "0:"
    INDEX 01 01:53:63
  TRACK 115 AUDIO
    TITLE "4:cjc137_6917"
    INDEX 01 01:54:70
  TRACK 116 AUDIO
    TITLE "0:"
    INDEX 01 01:56:18
  TRACK 117 AUDIO
    TITLE "6:cjc137_6918"
    INDEX 01 01:56:32
  TRACK 118 AUDIO
    TITLE "0:"
    INDEX 01 01:57:60
  TRACK 119 AUDIO
    TITLE "5:cjc137_6919"
    INDEX 01 01:57:66
  TRACK 120 AUDIO
    TITLE "0:"
    INDEX 01 01:59:18
  TRACK 121 AUDIO
    TITLE "4:cjc137_6920"
    INDEX 01 02:00:29
  TRACK 122 AUDIO
    TITLE "0:"
    INDEX 01 02:01:60
  TRACK 123 AUDIO
    TITLE "6:cjc137_6921"
    INDEX 01 02:01:66
  TRACK 124 AUDIO
    TITLE "0:"
    INDEX 01 02:03:26
  TRACK 125 AUDIO
    TITLE "5:cjc137_6922"
    INDEX 01 02:03:32
  TRACK 126 AUDIO
    TITLE "0:"
    INDEX 01 02:04:64
  TRACK 127 AUDIO
    TITLE "4:cjc137_6923"
    INDEX 01 02:05:74
  TRACK 128 AUDIO
    TITLE "0:"
    INDEX 01 02:07:18
  TRACK 129 AUDIO
    TITLE "6:cjc137_6924"
    INDEX 01 02:07:26
  TRACK 130 AUDIO
    TITLE "0:"
    INDEX 01 02:08:47
  TRACK 131 AUDIO
    TITLE "5:cjc137_6925"
    INDEX 01 02:08:56
  TRACK 132 AUDIO
    TITLE "0:"
    INDEX 01 02:10:02
